<svg width="12" height="12" viewBox="0 0 12 12" fill="none" xmlns="http://www.w3.org/2000/svg">
<path d="M5.23973 1.14165C5.47921 0.404605 6.52194 0.404605 6.76142 1.14165L7.61707 3.77509C7.72417 4.10471 8.03134 4.32788 8.37792 4.32788H11.1469C11.9219 4.32788 12.2441 5.31957 11.6171 5.77509L9.37697 7.40265C9.09658 7.60636 8.97926 7.96745 9.08636 8.29707L9.94201 10.9305C10.1815 11.6676 9.33791 12.2805 8.71094 11.8249L6.4708 10.1974C6.19041 9.99367 5.81073 9.99367 5.53034 10.1974L3.29021 11.8249C2.66324 12.2805 1.81965 11.6676 2.05914 10.9305L2.91479 8.29707C3.02189 7.96745 2.90456 7.60636 2.62417 7.40265L0.38404 5.77509C-0.242931 5.31957 0.0792892 4.32788 0.854268 4.32788H3.62323C3.96981 4.32788 4.27697 4.10471 4.38407 3.77509L5.23973 1.14165Z" fill="#FECE23"/>
</svg>
