<svg width="14" height="14" viewBox="0 0 14 14" fill="none" xmlns="http://www.w3.org/2000/svg">
<path fill-rule="evenodd" clip-rule="evenodd" d="M12.3954 6.50493C12.6687 6.7783 12.6687 7.22151 12.3954 7.49488L7.49537 12.3949C7.222 12.6682 6.77878 12.6682 6.50542 12.3949L1.60542 7.49488C1.46871 7.35817 1.40037 7.17899 1.40039 6.99982V3.4999C1.40039 2.3401 2.34059 1.3999 3.50039 1.3999H7.00058C7.17966 1.39995 7.35873 1.46829 7.49537 1.60493L12.3954 6.50493ZM3.50039 4.1999C3.88699 4.1999 4.20039 3.8865 4.20039 3.4999C4.20039 3.1133 3.88699 2.7999 3.50039 2.7999C3.11379 2.7999 2.80039 3.1133 2.80039 3.4999C2.80039 3.8865 3.11379 4.1999 3.50039 4.1999Z" fill="#C32026"/>
</svg>
